<?xml version="1.0" standalone="no"?>
<!--
Copyright 2016 Andrew Dunn.

Licensed under the Apache License, Version 2.0 (the "License");
you may not use this file except in compliance with the License.
You may obtain a copy of the License at

    http://www.apache.org/licenses/LICENSE-2.0

Unless required by applicable law or agreed to in writing, software
distributed under the License is distributed on an "AS IS" BASIS,
WITHOUT WARRANTIES OR CONDITIONS OF ANY KIND, either express or implied.
See the License for the specific language governing permissions and
limitations under the License.
-->
<!DOCTYPE svg PUBLIC "-//W3C//DTD SVG 1.1//EN" "http://www.w3.org/Graphics/SVG/1.1/DTD/svg11.dtd">
<svg width="100%" height="100%" viewBox="0 0 1024 420" version="1.1" xmlns="http://www.w3.org/2000/svg" xmlns:xlink="http://www.w3.org/1999/xlink" xml:space="preserve" style="fill-rule:evenodd;clip-rule:evenodd;stroke-linejoin:round;stroke-miterlimit:1.41421;">
    <g transform="matrix(1,0,0,1,-1.01415,-35.2569)">
        <g transform="matrix(1.27368,0,0,0.884761,311.452,8.02104)">
            <g transform="matrix(0.99594,0,0,0.996693,4.46323,1.19715)">
                <path d="M487.377,38.509L487.377,447.061" style="fill:none;stroke-width:3.66px;stroke:black;"/>
            </g>
            <g transform="matrix(7.82979e-18,0.0276401,-0.027661,7.83571e-18,496.766,433.754)">
                <path d="M487.377,38.509L487.377,447.061" style="fill:none;stroke-width:131.9px;stroke:black;"/>
            </g>
            <g transform="matrix(7.82979e-18,0.0276401,-0.027661,7.83571e-18,496.364,26.3338)">
                <path d="M487.377,38.509L487.377,447.061" style="fill:none;stroke-width:131.9px;stroke:black;"/>
            </g>
        </g>
        <g transform="matrix(2.03475,0,0,1.31901,-44.169,-190.888)">
            <g transform="matrix(0.0276401,0,0,0.027661,25.9727,456.983)">
                <path d="M487.377,38.509L487.377,447.061" style="fill:none;stroke-width:84.38px;stroke:black;"/>
            </g>
            <g transform="matrix(0.0276401,0,0,0.027661,458.897,456.983)">
                <path d="M487.377,38.509L487.377,447.061" style="fill:none;stroke-width:84.38px;stroke:black;"/>
            </g>
            <g transform="matrix(-1.70144e-16,-1.05803,1.05883,-1.70272e-16,-1.34211,979.399)">
                <path d="M487.377,38.509L487.377,447.061" style="fill:none;stroke-width:2.2px;stroke:black;"/>
            </g>
        </g>
        <g transform="matrix(0.748918,0,0,0.750033,626.591,64.4935)">
            <path d="M429.385,207.516L430.561,207.516C430.897,207.516 431.225,207.492 431.545,207.444C431.865,207.396 432.157,207.304 432.421,207.168C432.685,207.032 432.897,206.84 433.057,206.592C433.217,206.344 433.297,206.02 433.297,205.62C433.297,205.108 433.093,204.684 432.685,204.348C432.277,204.012 431.777,203.844 431.185,203.844C430.625,203.844 430.161,203.996 429.793,204.3C429.425,204.604 429.185,204.98 429.073,205.428L425.113,204.612C425.305,203.876 425.593,203.248 425.977,202.728C426.361,202.208 426.817,201.788 427.345,201.468C427.873,201.148 428.461,200.912 429.109,200.76C429.757,200.608 430.441,200.532 431.161,200.532C431.913,200.532 432.637,200.624 433.333,200.808C434.029,200.992 434.641,201.28 435.169,201.672C435.697,202.064 436.117,202.556 436.429,203.148C436.741,203.74 436.897,204.444 436.897,205.26C436.897,206.204 436.649,207.012 436.153,207.684C435.657,208.356 434.937,208.788 433.993,208.98L433.993,209.052C434.505,209.116 434.957,209.268 435.349,209.508C435.741,209.748 436.073,210.044 436.345,210.396C436.617,210.748 436.825,211.148 436.969,211.596C437.113,212.044 437.185,212.516 437.185,213.012C437.185,213.86 437.021,214.604 436.693,215.244C436.365,215.884 435.925,216.416 435.373,216.84C434.821,217.264 434.173,217.58 433.429,217.788C432.685,217.996 431.897,218.1 431.065,218.1C429.545,218.1 428.237,217.748 427.141,217.044C426.045,216.34 425.321,215.228 424.969,213.708L428.761,212.82C428.889,213.428 429.149,213.908 429.541,214.26C429.933,214.612 430.513,214.788 431.281,214.788C432.065,214.788 432.645,214.584 433.021,214.176C433.397,213.768 433.585,213.244 433.585,212.604C433.585,212.124 433.485,211.752 433.285,211.488C433.085,211.224 432.825,211.028 432.505,210.9C432.185,210.772 431.825,210.696 431.425,210.672C431.025,210.648 430.625,210.636 430.225,210.636L429.385,210.636L429.385,207.516Z" style="fill:black;fill-rule:nonzero;"/>
            <path d="M445.297,206.892C445.489,206.844 445.681,206.804 445.873,206.772C446.065,206.74 446.265,206.724 446.473,206.724C447.273,206.724 448.001,206.868 448.657,207.156C449.313,207.444 449.873,207.836 450.337,208.332C450.801,208.828 451.161,209.416 451.417,210.096C451.673,210.776 451.801,211.5 451.801,212.268C451.801,213.148 451.637,213.944 451.309,214.656C450.981,215.368 450.533,215.98 449.965,216.492C449.397,217.004 448.725,217.4 447.949,217.68C447.173,217.96 446.345,218.1 445.465,218.1C444.569,218.1 443.737,217.96 442.969,217.68C442.201,217.4 441.533,217.004 440.965,216.492C440.397,215.98 439.949,215.368 439.621,214.656C439.293,213.944 439.129,213.148 439.129,212.268C439.129,211.66 439.185,211.104 439.297,210.6C439.409,210.096 439.557,209.62 439.741,209.172C439.925,208.724 440.141,208.296 440.389,207.888C440.637,207.48 440.897,207.06 441.169,206.628L444.889,200.82L449.281,200.82L445.297,206.892ZM448.201,212.124C448.201,211.356 447.949,210.72 447.445,210.216C446.941,209.712 446.281,209.46 445.465,209.46C444.649,209.46 443.989,209.712 443.485,210.216C442.981,210.72 442.729,211.356 442.729,212.124C442.729,212.892 442.981,213.528 443.485,214.032C443.989,214.536 444.649,214.788 445.465,214.788C446.281,214.788 446.941,214.536 447.445,214.032C447.949,213.528 448.201,212.892 448.201,212.124Z" style="fill:black;fill-rule:nonzero;"/>
            <path d="M453.409,209.316C453.409,208.308 453.501,207.284 453.685,206.244C453.869,205.204 454.197,204.26 454.669,203.412C455.141,202.564 455.785,201.872 456.601,201.336C457.417,200.8 458.457,200.532 459.721,200.532C460.985,200.532 462.025,200.8 462.841,201.336C463.657,201.872 464.301,202.564 464.773,203.412C465.245,204.26 465.573,205.204 465.757,206.244C465.941,207.284 466.033,208.308 466.033,209.316C466.033,210.324 465.941,211.348 465.757,212.388C465.573,213.428 465.245,214.372 464.773,215.22C464.301,216.068 463.657,216.76 462.841,217.296C462.025,217.832 460.985,218.1 459.721,218.1C458.457,218.1 457.417,217.832 456.601,217.296C455.785,216.76 455.141,216.068 454.669,215.22C454.197,214.372 453.869,213.428 453.685,212.388C453.501,211.348 453.409,210.324 453.409,209.316ZM457.009,209.316C457.009,209.764 457.029,210.3 457.069,210.924C457.109,211.548 457.217,212.148 457.393,212.724C457.569,213.3 457.837,213.788 458.197,214.188C458.557,214.588 459.065,214.788 459.721,214.788C460.361,214.788 460.865,214.588 461.233,214.188C461.601,213.788 461.873,213.3 462.049,212.724C462.225,212.148 462.333,211.548 462.373,210.924C462.413,210.3 462.433,209.764 462.433,209.316C462.433,208.868 462.413,208.332 462.373,207.708C462.333,207.084 462.225,206.484 462.049,205.908C461.873,205.332 461.601,204.844 461.233,204.444C460.865,204.044 460.361,203.844 459.721,203.844C459.065,203.844 458.557,204.044 458.197,204.444C457.837,204.844 457.569,205.332 457.393,205.908C457.217,206.484 457.109,207.084 457.069,207.708C457.029,208.332 457.009,208.868 457.009,209.316Z" style="fill:black;fill-rule:nonzero;"/>
            <path d="M468.433,206.148L471.745,206.148L471.745,207.684L471.793,207.684C471.937,207.476 472.125,207.264 472.357,207.048C472.589,206.832 472.861,206.636 473.173,206.46C473.485,206.284 473.825,206.14 474.193,206.028C474.561,205.916 474.953,205.86 475.369,205.86C476.233,205.86 477.017,206.008 477.721,206.304C478.425,206.6 479.029,207.016 479.533,207.552C480.037,208.088 480.425,208.724 480.697,209.46C480.969,210.196 481.105,211.004 481.105,211.884C481.105,212.7 480.981,213.48 480.733,214.224C480.485,214.968 480.133,215.628 479.677,216.204C479.221,216.78 478.665,217.24 478.009,217.584C477.353,217.928 476.609,218.1 475.777,218.1C475.025,218.1 474.325,217.984 473.677,217.752C473.029,217.52 472.497,217.124 472.081,216.564L472.033,216.564L472.033,223.284L468.433,223.284L468.433,206.148ZM471.745,211.98C471.745,212.86 471.997,213.572 472.501,214.116C473.005,214.66 473.713,214.932 474.625,214.932C475.537,214.932 476.245,214.66 476.749,214.116C477.253,213.572 477.505,212.86 477.505,211.98C477.505,211.1 477.253,210.388 476.749,209.844C476.245,209.3 475.537,209.028 474.625,209.028C473.713,209.028 473.005,209.3 472.501,209.844C471.997,210.388 471.745,211.1 471.745,211.98Z" style="fill:black;fill-rule:nonzero;"/>
            <path d="M486.361,211.572L482.473,206.148L486.721,206.148L488.785,209.316L490.777,206.148L494.785,206.148L490.993,211.572L495.481,217.812L491.233,217.812L488.689,213.924L485.953,217.812L481.753,217.812L486.361,211.572Z" style="fill:black;fill-rule:nonzero;"/>
        </g>
        <g transform="matrix(0.731605,0,0,0.731605,69.7719,114.085)">
            <path d="M522.12,437.624C522.12,436.84 522.268,436.156 522.564,435.572C522.86,434.988 523.268,434.5 523.788,434.108C524.308,433.716 524.912,433.424 525.6,433.232C526.288,433.04 527.024,432.944 527.808,432.944C528.592,432.944 529.328,433.04 530.016,433.232C530.704,433.424 531.304,433.716 531.816,434.108C532.328,434.5 532.736,434.988 533.04,435.572C533.344,436.156 533.496,436.84 533.496,437.624C533.496,438.552 533.244,439.344 532.74,440C532.236,440.656 531.528,441.12 530.616,441.392L530.616,441.44C531.64,441.712 532.424,442.204 532.968,442.916C533.512,443.628 533.784,444.512 533.784,445.568C533.784,446.384 533.62,447.104 533.292,447.728C532.964,448.352 532.524,448.868 531.972,449.276C531.42,449.684 530.784,449.992 530.064,450.2C529.344,450.408 528.592,450.512 527.808,450.512C527.024,450.512 526.272,450.408 525.552,450.2C524.832,449.992 524.196,449.684 523.644,449.276C523.092,448.868 522.652,448.352 522.324,447.728C521.996,447.104 521.832,446.384 521.832,445.568C521.832,444.512 522.104,443.628 522.648,442.916C523.192,442.204 523.976,441.712 525,441.44L525,441.392C524.088,441.12 523.38,440.656 522.876,440C522.372,439.344 522.12,438.552 522.12,437.624ZM525.72,438.128C525.72,438.656 525.912,439.104 526.296,439.472C526.68,439.84 527.184,440.024 527.808,440.024C528.432,440.024 528.936,439.84 529.32,439.472C529.704,439.104 529.896,438.656 529.896,438.128C529.896,437.616 529.704,437.176 529.32,436.808C528.936,436.44 528.432,436.256 527.808,436.256C527.184,436.256 526.68,436.44 526.296,436.808C525.912,437.176 525.72,437.616 525.72,438.128ZM525.432,445.064C525.432,445.656 525.648,446.16 526.08,446.576C526.512,446.992 527.088,447.2 527.808,447.2C528.528,447.2 529.104,446.992 529.536,446.576C529.968,446.16 530.184,445.656 530.184,445.064C530.184,444.456 529.968,443.944 529.536,443.528C529.104,443.112 528.528,442.904 527.808,442.904C527.088,442.904 526.512,443.112 526.08,443.528C525.648,443.944 525.432,444.456 525.432,445.064Z" style="fill:black;fill-rule:nonzero;"/>
            <path d="M536.328,437.624C536.328,436.84 536.476,436.156 536.772,435.572C537.068,434.988 537.476,434.5 537.996,434.108C538.516,433.716 539.12,433.424 539.808,433.232C540.496,433.04 541.232,432.944 542.016,432.944C542.8,432.944 543.536,433.04 544.224,433.232C544.912,433.424 545.512,433.716 546.024,434.108C546.536,434.5 546.944,434.988 547.248,435.572C547.552,436.156 547.704,436.84 547.704,437.624C547.704,438.552 547.452,439.344 546.948,440C546.444,440.656 545.736,441.12 544.824,441.392L544.824,441.44C545.848,441.712 546.632,442.204 547.176,442.916C547.72,443.628 547.992,444.512 547.992,445.568C547.992,446.384 547.828,447.104 547.5,447.728C547.172,448.352 546.732,448.868 546.18,449.276C545.628,449.684 544.992,449.992 544.272,450.2C543.552,450.408 542.8,450.512 542.016,450.512C541.232,450.512 540.48,450.408 539.76,450.2C539.04,449.992 538.404,449.684 537.852,449.276C537.3,448.868 536.86,448.352 536.532,447.728C536.204,447.104 536.04,446.384 536.04,445.568C536.04,444.512 536.312,443.628 536.856,442.916C537.4,442.204 538.184,441.712 539.208,441.44L539.208,441.392C538.296,441.12 537.588,440.656 537.084,440C536.58,439.344 536.328,438.552 536.328,437.624ZM539.928,438.128C539.928,438.656 540.12,439.104 540.504,439.472C540.888,439.84 541.392,440.024 542.016,440.024C542.64,440.024 543.144,439.84 543.528,439.472C543.912,439.104 544.104,438.656 544.104,438.128C544.104,437.616 543.912,437.176 543.528,436.808C543.144,436.44 542.64,436.256 542.016,436.256C541.392,436.256 540.888,436.44 540.504,436.808C540.12,437.176 539.928,437.616 539.928,438.128ZM539.64,445.064C539.64,445.656 539.856,446.16 540.288,446.576C540.72,446.992 541.296,447.2 542.016,447.2C542.736,447.2 543.312,446.992 543.744,446.576C544.176,446.16 544.392,445.656 544.392,445.064C544.392,444.456 544.176,443.944 543.744,443.528C543.312,443.112 542.736,442.904 542.016,442.904C541.296,442.904 540.72,443.112 540.288,443.528C539.856,443.944 539.64,444.456 539.64,445.064Z" style="fill:black;fill-rule:nonzero;"/>
            <path d="M549.912,441.728C549.912,440.72 550.004,439.696 550.188,438.656C550.372,437.616 550.7,436.672 551.172,435.824C551.644,434.976 552.288,434.284 553.104,433.748C553.92,433.212 554.96,432.944 556.224,432.944C557.488,432.944 558.528,433.212 559.344,433.748C560.16,434.284 560.804,434.976 561.276,435.824C561.748,436.672 562.076,437.616 562.26,438.656C562.444,439.696 562.536,440.72 562.536,441.728C562.536,442.736 562.444,443.76 562.26,444.8C562.076,445.84 561.748,446.784 561.276,447.632C560.804,448.48 560.16,449.172 559.344,449.708C558.528,450.244 557.488,450.512 556.224,450.512C554.96,450.512 553.92,450.244 553.104,449.708C552.288,449.172 551.644,448.48 551.172,447.632C550.7,446.784 550.372,445.84 550.188,444.8C550.004,443.76 549.912,442.736 549.912,441.728ZM553.512,441.728C553.512,442.176 553.532,442.712 553.572,443.336C553.612,443.96 553.72,444.56 553.896,445.136C554.072,445.712 554.34,446.2 554.7,446.6C555.06,447 555.568,447.2 556.224,447.2C556.864,447.2 557.368,447 557.736,446.6C558.104,446.2 558.376,445.712 558.552,445.136C558.728,444.56 558.836,443.96 558.876,443.336C558.916,442.712 558.936,442.176 558.936,441.728C558.936,441.28 558.916,440.744 558.876,440.12C558.836,439.496 558.728,438.896 558.552,438.32C558.376,437.744 558.104,437.256 557.736,436.856C557.368,436.456 556.864,436.256 556.224,436.256C555.568,436.256 555.06,436.456 554.7,436.856C554.34,437.256 554.072,437.744 553.896,438.32C553.72,438.896 553.612,439.496 553.572,440.12C553.532,440.744 553.512,441.28 553.512,441.728Z" style="fill:black;fill-rule:nonzero;"/>
            <path d="M564.936,438.56L568.248,438.56L568.248,440.096L568.296,440.096C568.44,439.888 568.628,439.676 568.86,439.46C569.092,439.244 569.364,439.048 569.676,438.872C569.988,438.696 570.328,438.552 570.696,438.44C571.064,438.328 571.456,438.272 571.872,438.272C572.736,438.272 573.52,438.42 574.224,438.716C574.928,439.012 575.532,439.428 576.036,439.964C576.54,440.5 576.928,441.136 577.2,441.872C577.472,442.608 577.608,443.416 577.608,444.296C577.608,445.112 577.484,445.892 577.236,446.636C576.988,447.38 576.636,448.04 576.18,448.616C575.724,449.192 575.168,449.652 574.512,449.996C573.856,450.34 573.112,450.512 572.28,450.512C571.528,450.512 570.828,450.396 570.18,450.164C569.532,449.932 569,449.536 568.584,448.976L568.536,448.976L568.536,455.696L564.936,455.696L564.936,438.56ZM568.248,444.392C568.248,445.272 568.5,445.984 569.004,446.528C569.508,447.072 570.216,447.344 571.128,447.344C572.04,447.344 572.748,447.072 573.252,446.528C573.756,445.984 574.008,445.272 574.008,444.392C574.008,443.512 573.756,442.8 573.252,442.256C572.748,441.712 572.04,441.44 571.128,441.44C570.216,441.44 569.508,441.712 569.004,442.256C568.5,442.8 568.248,443.512 568.248,444.392Z" style="fill:black;fill-rule:nonzero;"/>
            <path d="M582.864,443.984L578.976,438.56L583.224,438.56L585.288,441.728L587.28,438.56L591.288,438.56L587.496,443.984L591.984,450.224L587.736,450.224L585.192,446.336L582.456,450.224L578.256,450.224L582.864,443.984Z" style="fill:black;fill-rule:nonzero;"/>
        </g>
    </g>
    <g transform="matrix(0.999151,0,0,0.968886,0.777929,-31.9237)">
        <rect x="34.821" y="41.08" width="881.032" height="372.173" style="fill:rgb(236,255,254);stroke-width:8.13px;stroke:black;"/>
    </g>
    <g transform="matrix(8.49768,0,0,8.49768,-648.712,-1314.12)">
        <path d="M87.52,183.165L87.52,180.622C89.239,181.341 90.708,181.7 91.927,181.7C93.349,181.7 94.059,181.216 94.059,180.247C94.059,179.622 93.474,179.075 92.302,178.606L91.13,178.137C89.856,177.622 88.946,177.067 88.399,176.473C87.852,175.88 87.579,175.145 87.579,174.27C87.579,173.052 88.044,172.104 88.974,171.428C89.903,170.753 91.204,170.415 92.876,170.415C93.923,170.415 95.169,170.567 96.614,170.872L96.614,173.309C95.224,172.825 94.071,172.583 93.157,172.583C91.72,172.583 91.001,173.028 91.001,173.919C91.001,174.505 91.532,175.001 92.595,175.407L93.602,175.794C95.11,176.364 96.159,176.942 96.749,177.528C97.339,178.114 97.634,178.868 97.634,179.79C97.634,181.001 97.132,181.983 96.128,182.737C95.124,183.491 93.817,183.868 92.208,183.868C90.661,183.868 89.099,183.634 87.52,183.165Z" style="fill:url(#_Linear1);fill-rule:nonzero;stroke-width:0.94px;stroke:black;"/>
        <path d="M104.606,183.575L99.696,170.708L103.352,170.708L106.95,179.989L110.524,170.708L113.032,170.708L108.075,183.575L104.606,183.575Z" style="fill:url(#_Linear2);fill-rule:nonzero;stroke-width:0.94px;stroke:black;"/>
        <path d="M115.763,187.571L116.044,185.052C117.474,185.708 118.837,186.036 120.134,186.036C121.415,186.036 122.341,185.762 122.911,185.216C123.481,184.669 123.767,183.782 123.767,182.555L123.767,180.798C122.923,182.649 121.528,183.575 119.583,183.575C118.052,183.575 116.837,183.003 115.938,181.858C115.04,180.714 114.591,179.165 114.591,177.212C114.591,175.157 115.095,173.511 116.102,172.272C117.11,171.034 118.45,170.415 120.122,170.415C121.434,170.415 122.649,170.946 123.767,172.009L124.13,170.708L127.247,170.708L127.247,180.528C127.247,182.489 127.128,183.903 126.89,184.77C126.651,185.637 126.188,186.376 125.501,186.985C124.345,187.985 122.716,188.485 120.614,188.485C119.122,188.485 117.505,188.18 115.763,187.571ZM123.767,178.782L123.767,174.036C122.931,173.091 122.056,172.618 121.142,172.618C120.267,172.618 119.571,173.016 119.056,173.813C118.54,174.61 118.282,175.68 118.282,177.024C118.282,179.54 119.091,180.798 120.708,180.798C121.825,180.798 122.845,180.126 123.767,178.782Z" style="fill:url(#_Linear3);fill-rule:nonzero;stroke-width:0.94px;stroke:black;"/>
        <path d="M131.161,183.165L131.161,180.622C132.88,181.341 134.349,181.7 135.567,181.7C136.989,181.7 137.7,181.216 137.7,180.247C137.7,179.622 137.114,179.075 135.942,178.606L134.77,178.137C133.497,177.622 132.587,177.067 132.04,176.473C131.493,175.88 131.22,175.145 131.22,174.27C131.22,173.052 131.684,172.104 132.614,171.428C133.544,170.753 134.845,170.415 136.517,170.415C137.563,170.415 138.809,170.567 140.255,170.872L140.255,173.309C138.864,172.825 137.712,172.583 136.798,172.583C135.36,172.583 134.642,173.028 134.642,173.919C134.642,174.505 135.173,175.001 136.235,175.407L137.243,175.794C138.751,176.364 139.8,176.942 140.39,177.528C140.979,178.114 141.274,178.868 141.274,179.79C141.274,181.001 140.772,181.983 139.768,182.737C138.765,183.491 137.458,183.868 135.849,183.868C134.302,183.868 132.739,183.634 131.161,183.165Z" style="fill:url(#_Linear4);fill-rule:nonzero;stroke-width:0.94px;stroke:black;"/>
        <path d="M145.071,183.575L145.071,170.708L148.54,170.708L148.54,183.575L145.071,183.575ZM145.071,168.54L145.071,165.645L148.54,165.645L148.54,168.54L145.071,168.54Z" style="fill:url(#_Linear5);fill-rule:nonzero;stroke-width:0.94px;stroke:black;"/>
        <path d="M152.149,183.575L152.149,181.266L159.345,172.876L152.477,172.876L152.477,170.708L163.446,170.708L163.446,172.876L156.251,181.266L163.587,181.266L163.587,183.575L152.149,183.575Z" style="fill:url(#_Linear6);fill-rule:nonzero;stroke-width:0.94px;stroke:black;"/>
        <path d="M177.532,183.141C175.884,183.626 174.321,183.868 172.845,183.868C170.696,183.868 169.001,183.259 167.759,182.04C166.517,180.821 165.895,179.157 165.895,177.048C165.895,175.055 166.464,173.452 167.601,172.237C168.737,171.022 170.239,170.415 172.106,170.415C173.989,170.415 175.364,171.009 176.231,172.196C177.099,173.384 177.532,175.262 177.532,177.833L169.552,177.833C169.786,180.286 171.134,181.512 173.595,181.512C174.759,181.512 176.071,181.243 177.532,180.704L177.532,183.141ZM169.505,175.876L174.122,175.876C174.122,173.68 173.415,172.583 172.001,172.583C170.563,172.583 169.731,173.68 169.505,175.876Z" style="fill:url(#_Linear7);fill-rule:nonzero;stroke-width:0.94px;stroke:black;"/>
    </g>
    <g transform="matrix(1.23886,0,0,1.23886,-302.085,17.1497)">
        <g transform="matrix(-0.120977,-0.116315,0.135448,-0.140876,353.158,194.947)">
            <path d="M487.377,38.509L487.377,447.061" style="fill:none;stroke-width:17.73px;stroke-linecap:round;stroke:rgb(47,123,255);"/>
        </g>
        <g>
            <circle cx="355.376" cy="74.867" r="2.5" style="fill:white;"/>
            <path d="M355.522,69.139L355.668,69.145L355.813,69.154L355.958,69.167L356.101,69.184L356.244,69.204L356.386,69.227L356.527,69.254L356.667,69.285L356.805,69.318L356.943,69.356L357.078,69.396L357.213,69.44L357.346,69.487L357.477,69.537L357.607,69.59L357.735,69.646L357.861,69.705L357.986,69.767L358.109,69.831L358.23,69.899L358.349,69.97L358.466,70.043L358.581,70.118L358.694,70.197L358.805,70.278L358.914,70.362L359.021,70.448L359.125,70.536L359.228,70.627L359.328,70.72L359.426,70.816L359.522,70.914L359.615,71.014L359.706,71.117L359.795,71.221L359.881,71.328L359.964,71.437L360.045,71.548L360.124,71.661L360.2,71.776L360.273,71.893L360.343,72.013L360.411,72.133L360.476,72.256L360.537,72.381L360.597,72.507L360.653,72.635L360.706,72.765L360.756,72.897L360.803,73.029L360.846,73.164L360.887,73.3L360.924,73.437L360.958,73.575L360.988,73.715L361.015,73.856L361.039,73.998L361.059,74.141L361.075,74.285L361.088,74.429L361.097,74.574L361.103,74.72L361.105,74.867L361.103,75.013L361.097,75.159L361.088,75.304L361.075,75.449L361.059,75.592L361.039,75.735L361.015,75.877L360.988,76.018L360.958,76.158L360.924,76.296L360.887,76.434L360.846,76.569L360.803,76.704L360.756,76.837L360.706,76.968L360.653,77.098L360.597,77.226L360.537,77.352L360.476,77.477L360.411,77.6L360.343,77.721L360.273,77.84L360.2,77.957L360.124,78.072L360.045,78.185L359.964,78.296L359.881,78.405L359.795,78.512L359.706,78.617L359.615,78.719L359.522,78.819L359.426,78.917L359.328,79.013L359.228,79.106L359.125,79.197L359.021,79.286L358.914,79.372L358.805,79.455L358.694,79.536L358.581,79.615L358.466,79.691L358.349,79.764L358.23,79.834L358.109,79.902L357.986,79.967L357.861,80.029L357.735,80.088L357.607,80.144L357.477,80.197L357.346,80.247L357.213,80.294L357.078,80.337L356.943,80.378L356.805,80.415L356.667,80.449L356.527,80.479L356.386,80.506L356.244,80.53L356.102,80.55L355.958,80.566L355.813,80.579L355.668,80.588L355.522,80.594L355.376,80.596L355.229,80.594L355.083,80.588L354.938,80.579L354.794,80.566L354.65,80.55L354.507,80.53L354.365,80.506L354.224,80.479L354.084,80.449L353.946,80.415L353.809,80.378L353.673,80.337L353.538,80.294L353.405,80.247L353.274,80.197L353.144,80.144L353.016,80.088L352.89,80.029L352.765,79.967L352.642,79.902L352.521,79.834L352.402,79.764L352.285,79.691L352.17,79.615L352.057,79.536L351.946,79.455L351.837,79.372L351.73,79.286L351.626,79.197L351.523,79.106L351.423,79.013L351.325,78.917L351.229,78.819L351.136,78.719L351.045,78.617L350.957,78.512L350.87,78.405L350.787,78.296L350.706,78.185L350.627,78.072L350.552,77.957L350.478,77.84L350.408,77.721L350.34,77.6L350.276,77.477L350.214,77.352L350.155,77.226L350.099,77.098L350.045,76.968L349.995,76.837L349.949,76.704L349.905,76.569L349.864,76.434L349.827,76.296L349.793,76.158L349.763,76.018L349.736,75.877L349.712,75.735L349.692,75.593L349.676,75.449L349.663,75.304L349.654,75.159L349.648,75.013L349.647,74.867L349.648,74.72L349.654,74.574L349.663,74.429L349.676,74.285L349.692,74.141L349.712,73.998L349.736,73.856L349.763,73.715L349.793,73.575L349.827,73.437L349.864,73.3L349.905,73.164L349.949,73.029L349.995,72.897L350.045,72.765L350.099,72.635L350.155,72.507L350.214,72.381L350.276,72.256L350.34,72.133L350.408,72.013L350.478,71.894L350.552,71.776L350.627,71.661L350.706,71.548L350.787,71.437L350.871,71.328L350.957,71.221L351.045,71.117L351.136,71.014L351.229,70.914L351.325,70.816L351.423,70.72L351.523,70.627L351.626,70.536L351.73,70.448L351.837,70.361L351.946,70.278L352.057,70.197L352.17,70.118L352.285,70.043L352.402,69.97L352.521,69.899L352.642,69.832L352.765,69.767L352.89,69.705L353.016,69.646L353.144,69.59L353.274,69.537L353.405,69.487L353.538,69.44L353.673,69.396L353.809,69.356L353.946,69.318L354.084,69.285L354.224,69.254L354.365,69.227L354.507,69.204L354.65,69.184L354.794,69.167L354.938,69.154L355.083,69.145L355.229,69.139L355.376,69.138L355.522,69.139ZM355.311,72.367L355.247,72.37L355.183,72.374L355.12,72.38L355.057,72.387L354.995,72.395L354.933,72.406L354.872,72.417L354.811,72.431L354.751,72.445L354.691,72.462L354.632,72.479L354.574,72.498L354.516,72.518L354.459,72.54L354.403,72.563L354.347,72.588L354.292,72.613L354.238,72.64L354.184,72.669L354.132,72.698L354.08,72.729L354.028,72.761L353.978,72.794L353.929,72.828L353.88,72.864L353.832,72.9L353.786,72.938L353.74,72.977L353.695,73.016L353.651,73.057L353.608,73.099L353.566,73.142L353.525,73.186L353.485,73.231L353.447,73.277L353.409,73.324L353.372,73.371L353.337,73.42L353.303,73.469L353.27,73.52L353.238,73.571L353.207,73.623L353.177,73.675L353.149,73.729L353.122,73.783L353.097,73.838L353.072,73.894L353.049,73.95L353.027,74.007L353.007,74.065L352.988,74.124L352.97,74.183L352.954,74.242L352.94,74.302L352.926,74.363L352.915,74.424L352.904,74.486L352.896,74.548L352.888,74.611L352.883,74.674L352.879,74.738L352.876,74.802L352.876,74.867L352.876,74.931L352.879,74.995L352.883,75.059L352.888,75.122L352.896,75.185L352.904,75.247L352.915,75.309L352.926,75.37L352.94,75.431L352.954,75.491L352.97,75.551L352.988,75.61L353.007,75.668L353.027,75.726L353.049,75.783L353.072,75.839L353.097,75.895L353.122,75.95L353.149,76.004L353.177,76.058L353.207,76.111L353.238,76.163L353.27,76.214L353.303,76.264L353.337,76.313L353.372,76.362L353.409,76.41L353.447,76.457L353.485,76.502L353.525,76.547L353.566,76.591L353.608,76.634L353.651,76.676L353.695,76.717L353.74,76.757L353.786,76.795L353.832,76.833L353.88,76.87L353.929,76.905L353.978,76.939L354.028,76.973L354.08,77.005L354.132,77.035L354.184,77.065L354.238,77.093L354.292,77.12L354.347,77.146L354.403,77.17L354.459,77.193L354.516,77.215L354.574,77.235L354.632,77.254L354.691,77.272L354.751,77.288L354.811,77.303L354.872,77.316L354.933,77.328L354.995,77.338L355.057,77.347L355.12,77.354L355.183,77.359L355.247,77.363L355.311,77.366L355.376,77.367L355.44,77.366L355.504,77.363L355.568,77.359L355.631,77.354L355.694,77.347L355.756,77.338L355.818,77.328L355.879,77.316L355.94,77.303L356,77.288L356.06,77.272L356.119,77.254L356.177,77.235L356.235,77.215L356.292,77.193L356.348,77.17L356.404,77.146L356.459,77.12L356.513,77.093L356.567,77.065L356.62,77.035L356.671,77.005L356.723,76.973L356.773,76.939L356.822,76.905L356.871,76.87L356.919,76.833L356.965,76.795L357.011,76.757L357.056,76.717L357.1,76.676L357.143,76.634L357.185,76.591L357.226,76.547L357.266,76.502L357.304,76.457L357.342,76.41L357.379,76.362L357.414,76.313L357.448,76.264L357.481,76.214L357.513,76.163L357.544,76.111L357.574,76.058L357.602,76.004L357.629,75.95L357.655,75.895L357.679,75.839L357.702,75.783L357.724,75.726L357.744,75.668L357.763,75.61L357.781,75.551L357.797,75.491L357.811,75.431L357.825,75.37L357.836,75.309L357.847,75.247L357.855,75.185L357.863,75.122L357.868,75.059L357.872,74.995L357.875,74.931L357.876,74.867L357.875,74.802L357.872,74.738L357.868,74.674L357.863,74.611L357.855,74.548L357.847,74.486L357.836,74.424L357.825,74.363L357.811,74.302L357.797,74.242L357.781,74.183L357.763,74.124L357.744,74.065L357.724,74.007L357.702,73.95L357.679,73.894L357.655,73.838L357.629,73.783L357.602,73.729L357.574,73.675L357.544,73.623L357.513,73.571L357.481,73.52L357.448,73.469L357.414,73.42L357.379,73.371L357.342,73.324L357.304,73.277L357.266,73.231L357.226,73.186L357.185,73.142L357.143,73.099L357.1,73.057L357.056,73.016L357.011,72.977L356.965,72.938L356.919,72.9L356.871,72.864L356.822,72.828L356.773,72.794L356.723,72.761L356.671,72.729L356.62,72.698L356.567,72.669L356.513,72.64L356.459,72.613L356.404,72.588L356.348,72.563L356.292,72.54L356.235,72.518L356.177,72.498L356.119,72.479L356.06,72.462L356,72.445L355.94,72.431L355.879,72.417L355.818,72.406L355.756,72.395L355.694,72.387L355.631,72.38L355.568,72.374L355.504,72.37L355.44,72.367L355.376,72.367L355.311,72.367Z" style="fill:rgb(47,123,255);"/>
        </g>
        <g transform="matrix(1,0,0,1,-55.5867,57.2911)">
            <circle cx="355.376" cy="74.867" r="2.5" style="fill:white;"/>
            <path d="M355.522,69.139L355.668,69.145L355.813,69.154L355.958,69.167L356.101,69.184L356.244,69.204L356.386,69.227L356.527,69.254L356.667,69.285L356.805,69.318L356.943,69.356L357.079,69.396L357.213,69.44L357.346,69.487L357.477,69.536L357.607,69.59L357.735,69.646L357.861,69.705L357.986,69.767L358.109,69.832L358.23,69.899L358.349,69.97L358.466,70.043L358.581,70.119L358.694,70.197L358.805,70.278L358.914,70.362L359.021,70.448L359.125,70.536L359.228,70.627L359.328,70.72L359.426,70.816L359.522,70.914L359.615,71.014L359.706,71.117L359.795,71.221L359.881,71.328L359.964,71.437L360.045,71.548L360.124,71.661L360.2,71.776L360.273,71.893L360.343,72.012L360.411,72.134L360.475,72.256L360.537,72.381L360.597,72.507L360.653,72.635L360.706,72.765L360.756,72.896L360.802,73.029L360.846,73.164L360.887,73.3L360.924,73.437L360.958,73.576L360.988,73.715L361.015,73.856L361.039,73.998L361.059,74.141L361.075,74.285L361.088,74.429L361.097,74.574L361.103,74.72L361.105,74.867L361.103,75.013L361.097,75.159L361.088,75.304L361.075,75.449L361.059,75.593L361.039,75.735L361.015,75.877L360.988,76.018L360.958,76.158L360.924,76.297L360.887,76.434L360.846,76.569L360.803,76.704L360.756,76.837L360.706,76.968L360.653,77.098L360.597,77.226L360.537,77.353L360.475,77.477L360.411,77.6L360.343,77.721L360.273,77.84L360.2,77.957L360.124,78.072L360.045,78.185L359.964,78.296L359.881,78.405L359.795,78.512L359.706,78.617L359.615,78.719L359.522,78.819L359.426,78.917L359.328,79.013L359.228,79.106L359.126,79.197L359.021,79.286L358.914,79.372L358.805,79.455L358.694,79.536L358.581,79.615L358.466,79.691L358.349,79.764L358.23,79.834L358.109,79.902L357.986,79.967L357.861,80.029L357.735,80.088L357.607,80.144L357.477,80.197L357.346,80.247L357.213,80.294L357.078,80.337L356.942,80.378L356.805,80.415L356.667,80.449L356.527,80.479L356.386,80.506L356.245,80.53L356.101,80.55L355.957,80.566L355.813,80.579L355.668,80.588L355.522,80.594L355.376,80.596L355.229,80.594L355.083,80.588L354.938,80.579L354.794,80.566L354.65,80.55L354.507,80.53L354.365,80.506L354.224,80.479L354.084,80.449L353.946,80.415L353.809,80.378L353.673,80.337L353.538,80.294L353.405,80.247L353.274,80.197L353.144,80.144L353.016,80.088L352.89,80.029L352.765,79.967L352.642,79.902L352.522,79.834L352.402,79.764L352.285,79.691L352.17,79.615L352.057,79.536L351.946,79.455L351.837,79.372L351.73,79.286L351.625,79.197L351.523,79.106L351.423,79.013L351.325,78.917L351.229,78.819L351.136,78.719L351.045,78.617L350.956,78.512L350.87,78.405L350.787,78.296L350.706,78.185L350.627,78.072L350.552,77.957L350.479,77.84L350.408,77.721L350.34,77.6L350.276,77.477L350.214,77.353L350.155,77.226L350.099,77.098L350.045,76.968L349.995,76.837L349.949,76.704L349.905,76.569L349.864,76.434L349.827,76.296L349.794,76.158L349.763,76.018L349.736,75.877L349.712,75.735L349.692,75.593L349.676,75.449L349.663,75.304L349.654,75.159L349.648,75.013L349.647,74.867L349.648,74.72L349.654,74.574L349.663,74.429L349.676,74.285L349.692,74.141L349.712,73.998L349.736,73.856L349.763,73.715L349.793,73.575L349.827,73.437L349.864,73.3L349.905,73.164L349.949,73.029L349.996,72.896L350.045,72.765L350.099,72.635L350.155,72.507L350.214,72.381L350.276,72.256L350.34,72.134L350.408,72.012L350.479,71.893L350.552,71.776L350.627,71.661L350.706,71.548L350.787,71.437L350.87,71.328L350.956,71.221L351.045,71.117L351.136,71.014L351.229,70.914L351.325,70.816L351.423,70.72L351.523,70.627L351.626,70.536L351.73,70.448L351.837,70.362L351.946,70.278L352.057,70.197L352.17,70.119L352.285,70.043L352.402,69.97L352.521,69.899L352.642,69.832L352.765,69.767L352.89,69.705L353.016,69.646L353.144,69.59L353.274,69.536L353.405,69.487L353.538,69.44L353.673,69.396L353.808,69.356L353.946,69.318L354.084,69.285L354.224,69.254L354.365,69.227L354.507,69.204L354.65,69.184L354.793,69.167L354.938,69.154L355.084,69.145L355.229,69.139L355.376,69.138L355.522,69.139ZM355.311,72.367L355.247,72.37L355.183,72.374L355.12,72.38L355.057,72.387L354.995,72.395L354.933,72.406L354.872,72.417L354.811,72.431L354.751,72.445L354.691,72.462L354.632,72.479L354.574,72.498L354.516,72.518L354.459,72.54L354.403,72.563L354.347,72.588L354.292,72.613L354.238,72.64L354.184,72.669L354.132,72.698L354.08,72.729L354.028,72.761L353.978,72.794L353.929,72.828L353.88,72.864L353.832,72.9L353.786,72.938L353.74,72.977L353.695,73.016L353.651,73.057L353.608,73.099L353.566,73.142L353.525,73.186L353.485,73.231L353.447,73.277L353.409,73.324L353.372,73.371L353.337,73.42L353.303,73.469L353.27,73.52L353.238,73.571L353.207,73.623L353.177,73.675L353.149,73.729L353.122,73.783L353.097,73.838L353.072,73.894L353.049,73.95L353.027,74.007L353.007,74.065L352.988,74.124L352.97,74.183L352.954,74.242L352.94,74.302L352.926,74.363L352.915,74.424L352.904,74.486L352.896,74.548L352.888,74.611L352.883,74.674L352.879,74.738L352.876,74.802L352.876,74.867L352.876,74.931L352.879,74.995L352.883,75.059L352.888,75.122L352.896,75.185L352.904,75.247L352.915,75.309L352.926,75.37L352.94,75.431L352.954,75.491L352.97,75.551L352.988,75.61L353.007,75.668L353.027,75.726L353.049,75.783L353.072,75.839L353.097,75.895L353.122,75.95L353.149,76.004L353.177,76.058L353.207,76.111L353.238,76.163L353.27,76.214L353.303,76.264L353.337,76.313L353.372,76.362L353.409,76.41L353.447,76.457L353.485,76.502L353.525,76.547L353.566,76.591L353.608,76.634L353.651,76.676L353.695,76.717L353.74,76.757L353.786,76.795L353.832,76.833L353.88,76.87L353.929,76.905L353.978,76.939L354.028,76.973L354.08,77.005L354.132,77.035L354.184,77.065L354.238,77.093L354.292,77.12L354.347,77.146L354.403,77.17L354.459,77.193L354.516,77.215L354.574,77.235L354.632,77.254L354.691,77.272L354.751,77.288L354.811,77.303L354.872,77.316L354.933,77.328L354.995,77.338L355.057,77.347L355.12,77.354L355.183,77.359L355.247,77.363L355.311,77.366L355.376,77.367L355.44,77.366L355.504,77.363L355.568,77.359L355.631,77.354L355.694,77.347L355.756,77.338L355.818,77.328L355.879,77.316L355.94,77.303L356,77.288L356.06,77.272L356.119,77.254L356.177,77.235L356.235,77.215L356.292,77.193L356.348,77.17L356.404,77.146L356.459,77.12L356.513,77.093L356.567,77.065L356.62,77.035L356.671,77.005L356.723,76.973L356.773,76.939L356.822,76.905L356.871,76.87L356.919,76.833L356.965,76.795L357.011,76.757L357.056,76.717L357.1,76.676L357.143,76.634L357.185,76.591L357.226,76.547L357.266,76.502L357.304,76.457L357.342,76.41L357.379,76.362L357.414,76.313L357.448,76.264L357.481,76.214L357.513,76.163L357.544,76.111L357.574,76.058L357.602,76.004L357.629,75.95L357.655,75.895L357.679,75.839L357.702,75.783L357.724,75.726L357.744,75.668L357.763,75.61L357.781,75.551L357.797,75.491L357.811,75.431L357.825,75.37L357.836,75.309L357.847,75.247L357.855,75.185L357.863,75.122L357.868,75.059L357.872,74.995L357.875,74.931L357.876,74.867L357.875,74.802L357.872,74.738L357.868,74.674L357.863,74.611L357.855,74.548L357.847,74.486L357.836,74.424L357.825,74.363L357.811,74.302L357.797,74.242L357.781,74.183L357.763,74.124L357.744,74.065L357.724,74.007L357.702,73.95L357.679,73.894L357.655,73.838L357.629,73.783L357.602,73.729L357.574,73.675L357.544,73.623L357.513,73.571L357.481,73.52L357.448,73.469L357.414,73.42L357.379,73.371L357.342,73.324L357.304,73.277L357.266,73.231L357.226,73.186L357.185,73.142L357.143,73.099L357.1,73.057L357.056,73.016L357.011,72.977L356.965,72.938L356.919,72.9L356.871,72.864L356.822,72.828L356.773,72.794L356.723,72.761L356.671,72.729L356.62,72.698L356.567,72.669L356.513,72.64L356.459,72.613L356.404,72.588L356.348,72.563L356.292,72.54L356.235,72.518L356.177,72.498L356.119,72.479L356.06,72.462L356,72.445L355.94,72.431L355.879,72.417L355.818,72.406L355.756,72.395L355.694,72.387L355.631,72.38L355.568,72.374L355.504,72.37L355.44,72.367L355.376,72.367L355.311,72.367Z" style="fill:rgb(47,123,255);"/>
        </g>
        <g transform="matrix(1,0,0,1,-28.2356,28.9667)">
            <circle cx="355.376" cy="74.867" r="2.5" style="fill:white;"/>
            <path d="M355.522,69.139L355.668,69.145L355.813,69.154L355.958,69.167L356.101,69.184L356.244,69.204L356.386,69.227L356.527,69.254L356.667,69.285L356.805,69.318L356.943,69.356L357.078,69.396L357.213,69.44L357.346,69.487L357.477,69.537L357.607,69.59L357.735,69.646L357.861,69.705L357.986,69.767L358.109,69.832L358.23,69.899L358.349,69.97L358.466,70.043L358.581,70.119L358.694,70.197L358.805,70.278L358.914,70.362L359.021,70.448L359.125,70.536L359.228,70.627L359.328,70.72L359.426,70.816L359.522,70.914L359.615,71.014L359.706,71.117L359.795,71.221L359.881,71.328L359.964,71.437L360.045,71.548L360.124,71.661L360.2,71.776L360.273,71.893L360.343,72.013L360.411,72.133L360.476,72.256L360.537,72.381L360.597,72.507L360.653,72.635L360.706,72.765L360.756,72.897L360.803,73.029L360.846,73.164L360.887,73.3L360.924,73.437L360.958,73.575L360.988,73.715L361.015,73.856L361.039,73.998L361.059,74.141L361.075,74.285L361.088,74.429L361.097,74.574L361.103,74.72L361.105,74.867L361.103,75.013L361.097,75.159L361.088,75.304L361.075,75.449L361.059,75.592L361.039,75.735L361.015,75.877L360.988,76.018L360.958,76.158L360.924,76.296L360.887,76.434L360.846,76.57L360.803,76.704L360.756,76.837L360.706,76.968L360.653,77.098L360.597,77.226L360.537,77.352L360.476,77.477L360.411,77.6L360.343,77.721L360.273,77.84L360.2,77.957L360.124,78.072L360.045,78.185L359.964,78.296L359.881,78.405L359.795,78.512L359.706,78.617L359.615,78.719L359.522,78.819L359.426,78.917L359.328,79.013L359.228,79.106L359.125,79.197L359.021,79.286L358.914,79.372L358.805,79.455L358.694,79.536L358.581,79.615L358.466,79.691L358.349,79.764L358.23,79.834L358.109,79.902L357.986,79.967L357.861,80.029L357.735,80.088L357.607,80.144L357.477,80.197L357.346,80.247L357.213,80.294L357.078,80.337L356.943,80.378L356.805,80.415L356.667,80.449L356.527,80.479L356.386,80.506L356.244,80.53L356.101,80.55L355.958,80.566L355.813,80.579L355.668,80.588L355.522,80.594L355.376,80.596L355.229,80.594L355.083,80.588L354.938,80.579L354.794,80.566L354.65,80.55L354.507,80.53L354.365,80.506L354.224,80.479L354.084,80.449L353.946,80.415L353.809,80.378L353.673,80.337L353.538,80.294L353.405,80.247L353.274,80.197L353.144,80.144L353.016,80.088L352.89,80.029L352.765,79.967L352.642,79.902L352.522,79.834L352.402,79.764L352.285,79.691L352.17,79.615L352.057,79.536L351.946,79.455L351.837,79.372L351.73,79.286L351.626,79.197L351.523,79.106L351.423,79.013L351.325,78.917L351.229,78.819L351.136,78.719L351.045,78.617L350.956,78.512L350.87,78.405L350.787,78.296L350.706,78.185L350.627,78.072L350.552,77.957L350.478,77.84L350.408,77.721L350.34,77.6L350.276,77.477L350.214,77.352L350.155,77.226L350.099,77.098L350.045,76.968L349.995,76.837L349.949,76.704L349.905,76.57L349.864,76.433L349.827,76.296L349.793,76.158L349.763,76.018L349.736,75.877L349.712,75.735L349.692,75.593L349.676,75.449L349.663,75.304L349.654,75.159L349.648,75.013L349.647,74.867L349.648,74.72L349.654,74.574L349.663,74.429L349.676,74.285L349.692,74.141L349.712,73.998L349.736,73.856L349.763,73.715L349.793,73.575L349.827,73.437L349.864,73.3L349.905,73.164L349.949,73.029L349.995,72.897L350.045,72.765L350.099,72.635L350.155,72.507L350.214,72.381L350.276,72.256L350.34,72.133L350.408,72.013L350.478,71.894L350.552,71.776L350.627,71.661L350.706,71.548L350.787,71.437L350.87,71.328L350.956,71.221L351.045,71.117L351.136,71.014L351.229,70.914L351.325,70.816L351.423,70.72L351.523,70.627L351.626,70.536L351.73,70.448L351.837,70.362L351.946,70.278L352.057,70.197L352.17,70.119L352.285,70.043L352.402,69.97L352.521,69.899L352.642,69.832L352.765,69.767L352.89,69.705L353.016,69.646L353.144,69.59L353.274,69.537L353.405,69.487L353.538,69.44L353.673,69.396L353.809,69.356L353.946,69.318L354.084,69.285L354.224,69.254L354.365,69.227L354.507,69.204L354.65,69.184L354.794,69.167L354.938,69.154L355.083,69.145L355.229,69.139L355.376,69.138L355.522,69.139ZM355.311,72.367L355.247,72.37L355.183,72.374L355.12,72.38L355.057,72.387L354.995,72.395L354.933,72.406L354.872,72.417L354.811,72.431L354.751,72.445L354.691,72.462L354.632,72.479L354.574,72.498L354.516,72.518L354.459,72.54L354.403,72.563L354.347,72.588L354.292,72.613L354.238,72.64L354.184,72.669L354.132,72.698L354.08,72.729L354.028,72.761L353.978,72.794L353.929,72.828L353.88,72.864L353.832,72.9L353.786,72.938L353.74,72.977L353.695,73.016L353.651,73.057L353.608,73.099L353.566,73.142L353.525,73.186L353.485,73.231L353.447,73.277L353.409,73.324L353.372,73.371L353.337,73.42L353.303,73.469L353.27,73.52L353.238,73.571L353.207,73.623L353.177,73.675L353.149,73.729L353.122,73.783L353.097,73.838L353.072,73.894L353.049,73.95L353.027,74.007L353.007,74.065L352.988,74.124L352.97,74.183L352.954,74.242L352.94,74.302L352.926,74.363L352.915,74.424L352.904,74.486L352.896,74.548L352.888,74.611L352.883,74.674L352.879,74.738L352.876,74.802L352.876,74.867L352.876,74.931L352.879,74.995L352.883,75.059L352.888,75.122L352.896,75.185L352.904,75.247L352.915,75.309L352.926,75.37L352.94,75.431L352.954,75.491L352.97,75.551L352.988,75.61L353.007,75.668L353.027,75.726L353.049,75.783L353.072,75.839L353.097,75.895L353.122,75.95L353.149,76.004L353.177,76.058L353.207,76.111L353.238,76.163L353.27,76.214L353.303,76.264L353.337,76.313L353.372,76.362L353.409,76.41L353.447,76.457L353.485,76.502L353.525,76.547L353.566,76.591L353.608,76.634L353.651,76.676L353.695,76.717L353.74,76.757L353.786,76.795L353.832,76.833L353.88,76.87L353.929,76.905L353.978,76.939L354.028,76.973L354.08,77.005L354.132,77.035L354.184,77.065L354.238,77.093L354.292,77.12L354.347,77.146L354.403,77.17L354.459,77.193L354.516,77.215L354.574,77.235L354.632,77.254L354.691,77.272L354.751,77.288L354.811,77.303L354.872,77.316L354.933,77.328L354.995,77.338L355.057,77.347L355.12,77.354L355.183,77.359L355.247,77.363L355.311,77.366L355.376,77.367L355.44,77.366L355.504,77.363L355.568,77.359L355.631,77.354L355.694,77.347L355.756,77.338L355.818,77.328L355.879,77.316L355.94,77.303L356,77.288L356.06,77.272L356.119,77.254L356.177,77.235L356.235,77.215L356.292,77.193L356.348,77.17L356.404,77.146L356.459,77.12L356.513,77.093L356.567,77.065L356.62,77.035L356.671,77.005L356.723,76.973L356.773,76.939L356.822,76.905L356.871,76.87L356.919,76.833L356.965,76.795L357.011,76.757L357.056,76.717L357.1,76.676L357.143,76.634L357.185,76.591L357.226,76.547L357.266,76.502L357.304,76.457L357.342,76.41L357.379,76.362L357.414,76.313L357.448,76.264L357.481,76.214L357.513,76.163L357.544,76.111L357.574,76.058L357.602,76.004L357.629,75.95L357.655,75.895L357.679,75.839L357.702,75.783L357.724,75.726L357.744,75.668L357.763,75.61L357.781,75.551L357.797,75.491L357.811,75.431L357.825,75.37L357.836,75.309L357.847,75.247L357.855,75.185L357.863,75.122L357.868,75.059L357.872,74.995L357.875,74.931L357.876,74.867L357.875,74.802L357.872,74.738L357.868,74.674L357.863,74.611L357.855,74.548L357.847,74.486L357.836,74.424L357.825,74.363L357.811,74.302L357.797,74.242L357.781,74.183L357.763,74.124L357.744,74.065L357.724,74.007L357.702,73.95L357.679,73.894L357.655,73.838L357.629,73.783L357.602,73.729L357.574,73.675L357.544,73.623L357.513,73.571L357.481,73.52L357.448,73.469L357.414,73.42L357.379,73.371L357.342,73.324L357.304,73.277L357.266,73.231L357.226,73.186L357.185,73.142L357.143,73.099L357.1,73.057L357.056,73.016L357.011,72.977L356.965,72.938L356.919,72.9L356.871,72.864L356.822,72.828L356.773,72.794L356.723,72.761L356.671,72.729L356.62,72.698L356.567,72.669L356.513,72.64L356.459,72.613L356.404,72.588L356.348,72.563L356.292,72.54L356.235,72.518L356.177,72.498L356.119,72.479L356.06,72.462L356,72.445L355.94,72.431L355.879,72.417L355.818,72.406L355.756,72.395L355.694,72.387L355.631,72.38L355.568,72.374L355.504,72.37L355.44,72.367L355.376,72.367L355.311,72.367Z" style="fill:rgb(47,123,255);"/>
        </g>
    </g>
    <defs>
        <linearGradient id="_Linear1" x1="0" y1="0" x2="1" y2="0" gradientUnits="userSpaceOnUse" gradientTransform="matrix(93.2578,0,0,23.5664,85.6923,176.854)"><stop offset="0%" style="stop-color:rgb(236,255,254);stop-opacity:1"/><stop offset="39%" style="stop-color:rgb(236,255,254);stop-opacity:1"/><stop offset="100%" style="stop-color:black;stop-opacity:1"/></linearGradient>
        <linearGradient id="_Linear2" x1="0" y1="0" x2="1" y2="0" gradientUnits="userSpaceOnUse" gradientTransform="matrix(93.2578,0,0,23.5664,85.6923,176.854)"><stop offset="0%" style="stop-color:rgb(236,255,254);stop-opacity:1"/><stop offset="39%" style="stop-color:rgb(236,255,254);stop-opacity:1"/><stop offset="100%" style="stop-color:black;stop-opacity:1"/></linearGradient>
        <linearGradient id="_Linear3" x1="0" y1="0" x2="1" y2="0" gradientUnits="userSpaceOnUse" gradientTransform="matrix(93.2578,0,0,23.5664,85.6923,176.854)"><stop offset="0%" style="stop-color:rgb(236,255,254);stop-opacity:1"/><stop offset="39%" style="stop-color:rgb(236,255,254);stop-opacity:1"/><stop offset="100%" style="stop-color:black;stop-opacity:1"/></linearGradient>
        <linearGradient id="_Linear4" x1="0" y1="0" x2="1" y2="0" gradientUnits="userSpaceOnUse" gradientTransform="matrix(93.2578,0,0,23.5664,85.6923,176.854)"><stop offset="0%" style="stop-color:rgb(236,255,254);stop-opacity:1"/><stop offset="39%" style="stop-color:rgb(236,255,254);stop-opacity:1"/><stop offset="100%" style="stop-color:black;stop-opacity:1"/></linearGradient>
        <linearGradient id="_Linear5" x1="0" y1="0" x2="1" y2="0" gradientUnits="userSpaceOnUse" gradientTransform="matrix(93.2578,0,0,23.5664,85.6923,176.854)"><stop offset="0%" style="stop-color:rgb(236,255,254);stop-opacity:1"/><stop offset="39%" style="stop-color:rgb(236,255,254);stop-opacity:1"/><stop offset="100%" style="stop-color:black;stop-opacity:1"/></linearGradient>
        <linearGradient id="_Linear6" x1="0" y1="0" x2="1" y2="0" gradientUnits="userSpaceOnUse" gradientTransform="matrix(93.2578,0,0,23.5664,85.6923,176.854)"><stop offset="0%" style="stop-color:rgb(236,255,254);stop-opacity:1"/><stop offset="39%" style="stop-color:rgb(236,255,254);stop-opacity:1"/><stop offset="100%" style="stop-color:black;stop-opacity:1"/></linearGradient>
        <linearGradient id="_Linear7" x1="0" y1="0" x2="1" y2="0" gradientUnits="userSpaceOnUse" gradientTransform="matrix(93.2578,0,0,23.5664,85.6923,176.854)"><stop offset="0%" style="stop-color:rgb(236,255,254);stop-opacity:1"/><stop offset="39%" style="stop-color:rgb(236,255,254);stop-opacity:1"/><stop offset="100%" style="stop-color:black;stop-opacity:1"/></linearGradient>
    </defs>
</svg>
